<?xml version="1.0" standalone="no"?>
<!DOCTYPE svg PUBLIC "-//W3C//DTD SVG 20010904//EN"
 "http://www.w3.org/TR/2001/REC-SVG-20010904/DTD/svg10.dtd">
<svg version="1.0" xmlns="http://www.w3.org/2000/svg"
 width="404.000000pt" height="316.000000pt" viewBox="0 0 404.000000 316.000000"
 preserveAspectRatio="xMidYMid meet">

<g transform="translate(0.000000,316.000000) scale(0.100000,-0.100000)"
fill="#000000" stroke="none">
<path d="M0 1580 l0 -1580 2020 0 2020 0 0 1580 0 1580 -2020 0 -2020 0 0
-1580z m2185 1085 c263 -62 514 -308 625 -613 144 -395 12 -752 -301 -812
-112 -22 -272 17 -406 100 -46 28 -83 54 -83 57 0 4 10 37 22 74 l21 67 61
-45 c267 -197 532 -167 646 72 58 122 61 273 8 444 -77 249 -274 470 -486 543
-101 35 -227 33 -304 -5 -31 -15 -71 -44 -90 -65 -18 -20 -161 -254 -318 -519
-156 -266 -287 -479 -291 -475 -3 4 -27 58 -52 120 l-47 114 262 386 c143 213
276 406 295 429 97 121 264 170 438 128z m90 -150 c89 -24 172 -73 254 -150
314 -298 348 -778 66 -915 -68 -32 -184 -33 -270 -2 -62 23 -174 94 -213 135
l-22 23 21 62 21 62 63 -59 c339 -316 678 -7 470 428 -114 237 -330 372 -509
319 -89 -27 -108 -58 -371 -608 l-241 -505 -75 -36 -74 -37 -22 47 c-12 25
-22 55 -22 65 -1 26 555 1038 598 1087 74 88 193 118 326 84z m134 -175 c164
-88 285 -292 285 -480 -1 -277 -264 -351 -481 -134 l-62 62 20 61 c12 34 23
61 24 59 2 -2 20 -26 42 -54 70 -94 151 -143 234 -144 60 0 107 31 137 90 21
39 23 55 19 122 -12 185 -162 358 -311 358 -61 0 -108 -25 -131 -70 -9 -17
-79 -192 -156 -388 -77 -196 -144 -361 -149 -366 -10 -10 -202 -97 -206 -93
-8 7 406 913 431 945 65 81 187 94 304 32z m-1437 -1350 c78 -22 129 -88 130
-169 0 -102 -77 -181 -176 -181 -61 0 -86 14 -86 46 0 21 3 25 18 18 9 -4 40
-9 68 -12 43 -3 55 0 82 23 64 53 64 146 1 199 -42 36 -89 42 -135 20 -72 -36
-76 -51 -78 -246 -1 -171 -1 -173 -23 -176 l-23 -3 0 176 c0 190 6 219 55 265
23 21 86 49 115 50 8 0 32 -5 52 -10z m456 -6 c20 -8 52 -29 70 -47 32 -31 59
-98 47 -117 -4 -6 -70 -10 -157 -10 l-150 0 6 -27 c4 -16 22 -43 41 -60 30
-28 42 -33 85 -33 41 0 55 5 83 30 33 29 77 40 77 21 0 -18 -50 -69 -84 -85
-91 -43 -194 -4 -237 89 -45 98 -1 200 106 242 42 16 70 16 113 -3z m864 6
c71 -20 128 -89 128 -154 l0 -25 -155 -3 -154 -3 19 -42 c21 -48 61 -73 117
-73 39 0 103 31 103 50 0 5 14 10 31 10 l30 0 -18 -31 c-26 -45 -90 -79 -148
-79 -196 0 -244 279 -58 345 47 17 58 18 105 5z m488 -19 c24 -12 44 -35 63
-72 27 -51 29 -59 25 -165 -3 -102 -5 -114 -31 -153 -49 -74 -140 -100 -222
-62 -54 24 -70 44 -50 61 15 12 19 11 65 -15 55 -32 135 -10 170 48 28 45 29
216 2 266 -65 122 -242 72 -242 -68 0 -37 6 -49 39 -82 34 -34 44 -39 85 -39
26 0 56 5 67 10 16 9 19 7 19 -14 0 -32 -26 -46 -82 -46 -130 0 -215 137 -158
254 46 97 150 129 250 77z m452 -6 c41 -27 78 -89 78 -130 l0 -25 -155 0 c-85
0 -155 -2 -155 -5 0 -3 6 -21 14 -40 36 -85 165 -101 221 -27 6 8 23 12 40 10
l29 -3 -34 -39 c-19 -21 -49 -45 -67 -52 -135 -57 -280 67 -243 206 32 119
170 172 272 105z m-1328 1 c23 -13 49 -38 59 -55 l18 -31 -24 0 c-14 0 -39 13
-56 29 -118 111 -290 -54 -185 -179 49 -58 149 -60 193 -4 14 18 28 24 46 22
l27 -3 -24 -34 c-31 -46 -90 -75 -148 -74 -134 2 -216 141 -155 263 43 85 163
116 249 66z"/>
<path d="M1315 935 c-31 -16 -65 -51 -65 -66 0 -5 54 -9 120 -9 66 0 120 4
120 9 0 15 -49 61 -75 71 -37 14 -65 12 -100 -5z"/>
<path d="M2200 939 c-29 -12 -58 -37 -71 -61 -9 -17 -1 -18 117 -18 l126 0
-14 22 c-35 53 -107 79 -158 57z"/>
<path d="M3085 938 c-27 -14 -75 -60 -75 -70 0 -4 54 -8 120 -8 66 0 120 3
120 8 0 19 -35 55 -66 68 -40 17 -72 17 -99 2z"/>
</g>
</svg>
